# xmcd CD database file
#
# Track frame offsets:
#	150
#	15162
#	24792
#	42402
#	54710
#	70390
#	85315
#	102905
#	119945
#	137125
#	151370
#	165667
#	183307
#	191385
#	208605
#	226832
#	240030
#	253985
#	278992
#
# Disc length: 3909 seconds
#
# Revision: 5
# Processed by: cddbd v1.4PL0 Copyright (c) Steve Scherf et al.
# Submitted via: CDex 1.50
#
DISCID=010f4313
DTITLE=The Clash - London Calling
DYEAR=1979
DGENRE=Punk Rock
TTITLE0=London Calling
TTITLE1=Brand New Cadillac
TTITLE2=Jimmy Jazz
TTITLE3=Hateful
TTITLE4=Rudie Can't Fail
TTITLE5=Spanish Bombs
TTITLE6=The Right Profile
TTITLE7=Lost in the Supermarket
TTITLE8=Clampdown
TTITLE9=The Guns of Brixton
TTITLE10=Wrong 'em Boyo
TTITLE11=Death or Glory
TTITLE12=Koka Kola
TTITLE13=The Card Cheat
TTITLE14=Lover's Rock
TTITLE15=Four Horsemen
TTITLE16=I'm Not Down
TTITLE17=Revolution Rock
TTITLE18=Train in Vain
EXTD=YEAR: 1979
EXTT0=
EXTT1=
EXTT2=
EXTT3=
EXTT4=
EXTT5=
EXTT6=
EXTT7=
EXTT8=
EXTT9=
EXTT10=
EXTT11=
EXTT12=
EXTT13=
EXTT14=
EXTT15=
EXTT16=
EXTT17=
EXTT18=
PLAYORDER=
